<svg width="138" height="86" viewBox="0 0 138 86" fill="none" xmlns="http://www.w3.org/2000/svg">
<path fill-rule="evenodd" clip-rule="evenodd" d="M88.1523 27.1368C84.1348 36.5054 73.889 40.5132 64.553 44.165C52.4965 48.8809 41.9576 53.0033 48.3096 67.3107C48.9529 62.8033 53.9915 56.3519 72.1545 49.0036C62.8601 53.2264 57.848 57.4493 55.2855 61.19C49.1154 67.8717 53.0713 72.5642 54.2678 73.722C54.4548 73.903 54.7677 74 55.0975 74C55.9691 74 56.5659 73.3463 56.2588 72.8027C55.7906 71.974 55.261 70.7457 55.0776 69.2148C77.7058 70.9953 101.781 55.6799 88.6995 27.1287C88.6187 26.9522 88.2284 26.9594 88.1523 27.1368Z" fill="#A1D1EC"/>
<path d="M122.445 56.8589C122.445 49.3282 117.955 42.6196 111.151 39.6575L108.402 38.4606L108.332 35.4706C108.181 29.1178 102.965 24.0312 96.5767 24.0312C95.0036 24.0312 93.4813 24.3369 92.0672 24.9231L89.0251 26.1841L86.7972 23.7647C81.4821 17.9932 74.0183 14.6519 66.0052 14.6519C51.891 14.6519 39.9975 25.0483 38.0598 38.8466L37.5448 42.5137L33.8476 42.8648C25.4491 43.6624 18.9721 50.7262 18.9721 59.2038C18.9721 67.8417 25.7538 75.5804 33.0907 75.4888L103.636 75.6176C114.024 75.6155 122.445 67.2177 122.445 56.8589ZM103.632 80.3073L33.082 80.1785C22.8113 80.3073 14.2688 70.0664 14.2688 59.2038C14.2688 48.232 22.666 39.2159 33.4018 38.1963C35.6425 22.2407 49.3858 9.96217 66.0052 9.96217C75.6041 9.96217 84.2436 14.0581 90.2615 20.5928C92.2062 19.7866 94.3393 19.3415 96.5767 19.3415C105.536 19.3415 112.823 26.4774 113.034 35.3597C121.342 38.977 127.148 47.2418 127.148 56.8589C127.148 69.8091 116.62 80.3073 103.632 80.3073Z" fill="#A1D1EC"/>
<path d="M119.583 55.6667C119.583 48.8152 115.367 42.7117 108.978 40.0168L106.397 38.9279L106.33 36.2076C106.189 30.4278 101.29 25.8 95.2917 25.8C93.8144 25.8 92.3849 26.0781 91.057 26.6115L88.2003 27.7587L86.1082 25.5576C81.117 20.3066 74.108 17.2667 66.5833 17.2667C53.3293 17.2667 42.1607 26.7254 40.341 39.279L39.8574 42.6154L36.3856 42.9348C28.4989 43.6605 22.4167 50.0871 22.4167 57.8C22.4167 65.6588 28.7851 72.6994 35.6748 72.6161L101.92 72.7333C111.676 72.7313 119.583 65.0911 119.583 55.6667ZM101.917 77L35.6667 76.8828C26.0218 77 18 67.6828 18 57.8C18 47.8179 25.8854 39.615 35.967 38.6874C38.0711 24.171 50.9768 13 66.5833 13C75.5972 13 83.7102 16.7265 89.3614 22.6717C91.1875 21.9383 93.1906 21.5333 95.2917 21.5333C103.704 21.5333 110.548 28.0255 110.746 36.1066C118.547 39.3976 124 46.917 124 55.6667C124 67.4487 114.113 77 101.917 77Z" fill="#A1D1EC"/>
</svg>
