<svg width="141" height="141" viewBox="0 0 141 141" fill="none" xmlns="http://www.w3.org/2000/svg">
<rect width="150" height="150" transform="translate(-5 -6)" fill="#C59E6A"/>
<g filter="url(#filter0_d_8_144)">
<path d="M37.7909 46.2555C38.057 48.9242 38.5024 51.4417 39.114 53.8022C22.428 60.7613 11.5 73.0319 11.5 86.1176C11.5 106.195 37.2242 124.353 70 124.353C102.776 124.353 128.5 106.195 128.5 86.1176C128.5 73.0319 117.572 60.7613 100.886 53.8022C101.498 51.4417 101.943 48.9242 102.209 46.2555C121.798 54.1592 135 69.0501 135 86.1176C135 111.458 105.899 132 70 132C34.1015 132 5 111.458 5 86.1176C5 69.0501 18.202 54.1592 37.7909 46.2555ZM46.1612 67.9599C48.0059 70.1513 50.1095 72.0154 52.4367 73.5379C43.3502 76.5566 37.5 81.6034 37.5 86.1176C37.5 93.1234 51.5901 101.412 70 101.412C88.4099 101.412 102.5 93.1234 102.5 86.1176C102.5 81.6034 96.6498 76.5566 87.5633 73.5379C89.8905 72.0154 91.9941 70.1513 93.8388 67.9599C103.061 72.1557 109 78.7287 109 86.1176C109 98.7877 91.5391 109.059 70 109.059C48.4609 109.059 31 98.7877 31 86.1176C31 78.7287 36.9385 72.1557 46.1612 67.9599ZM70 93.7647C62.8203 93.7647 57 90.341 57 86.1176C57 81.8943 62.8203 78.4706 70 78.4706C77.1797 78.4706 83 81.8943 83 86.1176C83 90.341 77.1797 93.7647 70 93.7647ZM70 63.1765C59.2304 63.1765 50.5 57.1287 50.5 40.2353C50.5 23.3419 65.7304 2 70 2C74.2696 2 89.5 23.3419 89.5 40.2353C89.5 57.1287 80.7696 63.1765 70 63.1765ZM69.6266 11.1453C67.8709 13.1057 65.863 15.9279 64.0094 19.1076C59.6873 26.5219 57 34.3909 57 40.2353C57 51.198 61.2181 55.5294 70 55.5294C78.7819 55.5294 83 51.198 83 40.2353C83 34.3909 80.3127 26.5219 75.9906 19.1076C74.137 15.9279 72.1291 13.1057 70.3734 11.1453C70.2456 11.0026 70.121 10.8664 70 10.7374C69.879 10.8664 69.7544 11.0026 69.6266 11.1453Z" fill="#8E3333"/>
<path d="M37.7909 46.2555C38.057 48.9242 38.5024 51.4417 39.114 53.8022C22.428 60.7613 11.5 73.0319 11.5 86.1176C11.5 106.195 37.2242 124.353 70 124.353C102.776 124.353 128.5 106.195 128.5 86.1176C128.5 73.0319 117.572 60.7613 100.886 53.8022C101.498 51.4417 101.943 48.9242 102.209 46.2555C121.798 54.1592 135 69.0501 135 86.1176C135 111.458 105.899 132 70 132C34.1015 132 5 111.458 5 86.1176C5 69.0501 18.202 54.1592 37.7909 46.2555ZM46.1612 67.9599C48.0059 70.1513 50.1095 72.0154 52.4367 73.5379C43.3502 76.5566 37.5 81.6034 37.5 86.1176C37.5 93.1234 51.5901 101.412 70 101.412C88.4099 101.412 102.5 93.1234 102.5 86.1176C102.5 81.6034 96.6498 76.5566 87.5633 73.5379C89.8905 72.0154 91.9941 70.1513 93.8388 67.9599C103.061 72.1557 109 78.7287 109 86.1176C109 98.7877 91.5391 109.059 70 109.059C48.4609 109.059 31 98.7877 31 86.1176C31 78.7287 36.9385 72.1557 46.1612 67.9599ZM70 93.7647C62.8203 93.7647 57 90.341 57 86.1176C57 81.8943 62.8203 78.4706 70 78.4706C77.1797 78.4706 83 81.8943 83 86.1176C83 90.341 77.1797 93.7647 70 93.7647ZM70 63.1765C59.2304 63.1765 50.5 57.1287 50.5 40.2353C50.5 23.3419 65.7304 2 70 2C74.2696 2 89.5 23.3419 89.5 40.2353C89.5 57.1287 80.7696 63.1765 70 63.1765ZM69.6266 11.1453C67.8709 13.1057 65.863 15.9279 64.0094 19.1076C59.6873 26.5219 57 34.3909 57 40.2353C57 51.198 61.2181 55.5294 70 55.5294C78.7819 55.5294 83 51.198 83 40.2353C83 34.3909 80.3127 26.5219 75.9906 19.1076C74.137 15.9279 72.1291 13.1057 70.3734 11.1453C70.2456 11.0026 70.121 10.8664 70 10.7374C69.879 10.8664 69.7544 11.0026 69.6266 11.1453Z" stroke="black"/>
</g>
<defs>
<filter id="filter0_d_8_144" x="0.5" y="1.5" width="139" height="139" filterUnits="userSpaceOnUse" color-interpolation-filters="sRGB">
<feFlood flood-opacity="0" result="BackgroundImageFix"/>
<feColorMatrix in="SourceAlpha" type="matrix" values="0 0 0 0 0 0 0 0 0 0 0 0 0 0 0 0 0 0 127 0" result="hardAlpha"/>
<feOffset dy="4"/>
<feGaussianBlur stdDeviation="2"/>
<feComposite in2="hardAlpha" operator="out"/>
<feColorMatrix type="matrix" values="0 0 0 0 0 0 0 0 0 0 0 0 0 0 0 0 0 0 0.25 0"/>
<feBlend mode="normal" in2="BackgroundImageFix" result="effect1_dropShadow_8_144"/>
<feBlend mode="normal" in="SourceGraphic" in2="effect1_dropShadow_8_144" result="shape"/>
</filter>
</defs>
</svg>
