<svg width="250" height="250" viewBox="0 0 250 250" fill="none" xmlns="http://www.w3.org/2000/svg">
<path d="M12.5 37.4275V212.572C12.5 226.319 23.6741 237.5 37.4275 237.5H212.572C226.319 237.5 237.5 226.326 237.5 212.572V37.4275C237.5 23.6812 226.326 12.5 212.572 12.5H37.4275C23.6812 12.5 12.5 23.6741 12.5 37.4275ZM0 37.4275C0 16.7569 16.7914 0 37.4275 0H212.572C233.243 0 250 16.7914 250 37.4275V212.572C250 233.243 233.209 250 212.572 250H37.4275C16.7569 250 0 233.209 0 212.572V37.4275Z" fill="#7D4B4B"/>
<path d="M199.895 145.617C198.865 145.527 197.824 145.481 196.772 145.481C195.72 145.481 194.679 145.527 193.649 145.617V86.1481H56.2456V185.037H159.298C159.298 187.283 159.476 189.486 159.816 191.63H56.2456C52.7963 191.63 50 188.678 50 185.037V82.8519V66.3704C50 62.7294 52.7963 59.7778 56.2456 59.7778H81.2281C81.2281 67.0598 86.8206 72.963 93.7193 72.963C100.618 72.963 106.211 67.0598 106.211 59.7778H143.684C143.684 67.0598 149.277 72.963 156.175 72.963C163.074 72.963 168.667 67.0598 168.667 59.7778H193.649C197.098 59.7778 199.895 62.7294 199.895 66.3704V82.8519V145.617ZM93.7193 40C97.1687 40 99.9649 42.9516 99.9649 46.5926V59.7778C99.9649 63.4188 97.1687 66.3704 93.7193 66.3704C90.2699 66.3704 87.4737 63.4188 87.4737 59.7778V46.5926C87.4737 42.9516 90.2699 40 93.7193 40ZM156.175 40C159.625 40 162.421 42.9516 162.421 46.5926V59.7778C162.421 63.4188 159.625 66.3704 156.175 66.3704C152.726 66.3704 149.93 63.4188 149.93 59.7778V46.5926C149.93 42.9516 152.726 40 156.175 40ZM196.772 218C179.525 218 165.544 203.242 165.544 185.037C165.544 166.832 179.525 152.074 196.772 152.074C214.019 152.074 228 166.832 228 185.037C228 203.242 214.019 218 196.772 218ZM199.895 171.946C199.895 170.074 198.497 168.556 196.772 168.556C195.047 168.556 193.649 170.074 193.649 171.946V188.876L203.886 200.474C205.079 201.826 207.056 201.872 208.301 200.576C209.546 199.28 209.588 197.134 208.395 195.782L199.895 186.151V171.946ZM156.175 102.63H168.667C172.116 102.63 174.912 105.581 174.912 109.222C174.912 112.863 172.116 115.815 168.667 115.815H156.175C152.726 115.815 149.93 112.863 149.93 109.222C149.93 105.581 152.726 102.63 156.175 102.63ZM118.702 102.63H131.193C134.642 102.63 137.439 105.581 137.439 109.222C137.439 112.863 134.642 115.815 131.193 115.815H118.702C115.252 115.815 112.456 112.863 112.456 109.222C112.456 105.581 115.252 102.63 118.702 102.63ZM81.2281 129H93.7193C97.1687 129 99.9649 131.952 99.9649 135.593C99.9649 139.234 97.1687 142.185 93.7193 142.185H81.2281C77.7787 142.185 74.9825 139.234 74.9825 135.593C74.9825 131.952 77.7787 129 81.2281 129ZM156.175 129H168.667C172.116 129 174.912 131.952 174.912 135.593C174.912 139.234 172.116 142.185 168.667 142.185H156.175C152.726 142.185 149.93 139.234 149.93 135.593C149.93 131.952 152.726 129 156.175 129ZM118.702 129H131.193C134.642 129 137.439 131.952 137.439 135.593C137.439 139.234 134.642 142.185 131.193 142.185H118.702C115.252 142.185 112.456 139.234 112.456 135.593C112.456 131.952 115.252 129 118.702 129ZM81.2281 155.37H93.7193C97.1687 155.37 99.9649 158.322 99.9649 161.963C99.9649 165.604 97.1687 168.556 93.7193 168.556H81.2281C77.7787 168.556 74.9825 165.604 74.9825 161.963C74.9825 158.322 77.7787 155.37 81.2281 155.37ZM118.702 155.37H131.193C134.642 155.37 137.439 158.322 137.439 161.963C137.439 165.604 134.642 168.556 131.193 168.556H118.702C115.252 168.556 112.456 165.604 112.456 161.963C112.456 158.322 115.252 155.37 118.702 155.37Z" fill="#7D4B4B"/>
</svg>
